<svg width="158" height="27" viewBox="0 0 158 27" fill="none" xmlns="http://www.w3.org/2000/svg">
<path d="M14.144 1.852V4.79H9.308V20H5.668V4.79H0.832V1.852H14.144ZM19.9199 7.832C20.3879 7.06933 20.9945 6.47133 21.7399 6.038C22.5025 5.60467 23.3692 5.388 24.3399 5.388V9.21H23.3779C22.2339 9.21 21.3672 9.47867 20.7779 10.016C20.2059 10.5533 19.9199 11.4893 19.9199 12.824V20H16.2799V5.596H19.9199V7.832ZM25.3356 12.746C25.3356 11.29 25.6216 9.99867 26.1936 8.872C26.7829 7.74533 27.5716 6.87867 28.5596 6.272C29.5649 5.66533 30.6829 5.362 31.9136 5.362C32.9882 5.362 33.9242 5.57867 34.7216 6.012C35.5362 6.44533 36.1862 6.99133 36.6716 7.65V5.596H40.3376V20H36.6716V17.894C36.2036 18.57 35.5536 19.1333 34.7216 19.584C33.9069 20.0173 32.9622 20.234 31.8876 20.234C30.6742 20.234 29.5649 19.922 28.5596 19.298C27.5716 18.674 26.7829 17.7987 26.1936 16.672C25.6216 15.528 25.3356 14.2193 25.3356 12.746ZM36.6716 12.798C36.6716 11.914 36.4982 11.16 36.1516 10.536C35.8049 9.89467 35.3369 9.40933 34.7476 9.08C34.1582 8.73333 33.5256 8.56 32.8496 8.56C32.1736 8.56 31.5496 8.72467 30.9776 9.054C30.4056 9.38333 29.9376 9.86867 29.5736 10.51C29.2269 11.134 29.0536 11.8793 29.0536 12.746C29.0536 13.6127 29.2269 14.3753 29.5736 15.034C29.9376 15.6753 30.4056 16.1693 30.9776 16.516C31.5669 16.8627 32.1909 17.036 32.8496 17.036C33.5256 17.036 34.1582 16.8713 34.7476 16.542C35.3369 16.1953 35.8049 15.71 36.1516 15.086C36.4982 14.4447 36.6716 13.682 36.6716 12.798ZM49.3787 16.646L53.0187 5.596H56.8927L51.5627 20H47.1427L41.8387 5.596H45.7387L49.3787 16.646ZM71.8071 12.486C71.8071 13.006 71.7725 13.474 71.7031 13.89H61.1731C61.2598 14.93 61.6238 15.7447 62.2651 16.334C62.9065 16.9233 63.6951 17.218 64.6311 17.218C65.9831 17.218 66.9451 16.6373 67.5171 15.476H71.4431C71.0271 16.8627 70.2298 18.0067 69.0511 18.908C67.8725 19.792 66.4251 20.234 64.7091 20.234C63.3225 20.234 62.0745 19.9307 60.9651 19.324C59.8731 18.7 59.0151 17.8247 58.3911 16.698C57.7845 15.5713 57.4811 14.2713 57.4811 12.798C57.4811 11.3073 57.7845 9.99867 58.3911 8.872C58.9978 7.74533 59.8471 6.87867 60.9391 6.272C62.0311 5.66533 63.2878 5.362 64.7091 5.362C66.0785 5.362 67.3005 5.65667 68.3751 6.246C69.4671 6.83533 70.3078 7.676 70.8971 8.768C71.5038 9.84267 71.8071 11.082 71.8071 12.486ZM68.0371 11.446C68.0198 10.51 67.6818 9.76467 67.0231 9.21C66.3645 8.638 65.5585 8.352 64.6051 8.352C63.7038 8.352 62.9411 8.62933 62.3171 9.184C61.7105 9.72133 61.3378 10.4753 61.1991 11.446H68.0371ZM77.584 0.76V20H73.944V0.76H77.584ZM86.2763 20.182C85.0977 20.182 84.0663 19.974 83.1823 19.558C82.2983 19.142 81.605 18.5787 81.1023 17.868C80.617 17.1573 80.3397 16.3687 80.2703 15.502H81.4923C81.631 16.4553 82.073 17.3047 82.8183 18.05C83.581 18.7953 84.7337 19.168 86.2763 19.168C87.1777 19.168 87.9577 19.0033 88.6163 18.674C89.2923 18.3447 89.8123 17.894 90.1763 17.322C90.5403 16.75 90.7223 16.1173 90.7223 15.424C90.7223 14.54 90.5057 13.838 90.0723 13.318C89.6563 12.798 89.1277 12.408 88.4863 12.148C87.8623 11.888 87.013 11.6107 85.9383 11.316C84.7597 11.004 83.8063 10.692 83.0783 10.38C82.3677 10.068 81.761 9.59133 81.2583 8.95C80.773 8.29133 80.5303 7.39867 80.5303 6.272C80.5303 5.40533 80.7557 4.61667 81.2063 3.906C81.6743 3.178 82.333 2.606 83.1823 2.19C84.0317 1.774 85.011 1.566 86.1203 1.566C87.7323 1.566 89.0323 1.96467 90.0203 2.762C91.0083 3.55933 91.5977 4.53867 91.7883 5.7H90.5403C90.4363 5.232 90.2023 4.75533 89.8383 4.27C89.4917 3.78467 88.989 3.386 88.3303 3.074C87.689 2.74467 86.9177 2.58 86.0163 2.58C84.803 2.58 83.7803 2.918 82.9483 3.594C82.1163 4.25267 81.7003 5.13667 81.7003 6.246C81.7003 7.13 81.917 7.84067 82.3503 8.378C82.7837 8.898 83.3123 9.29667 83.9363 9.574C84.5777 9.834 85.4357 10.1027 86.5103 10.38C87.7063 10.7093 88.651 11.03 89.3443 11.342C90.055 11.6367 90.653 12.1133 91.1383 12.772C91.641 13.4133 91.8923 14.2887 91.8923 15.398C91.8923 16.2127 91.6757 16.984 91.2423 17.712C90.809 18.44 90.1677 19.038 89.3183 19.506C88.4863 19.9567 87.4723 20.182 86.2763 20.182ZM94.1468 12.928C94.1468 11.472 94.4328 10.198 95.0048 9.106C95.5941 8.014 96.4001 7.17333 97.4228 6.584C98.4628 5.99467 99.6415 5.7 100.959 5.7C102.449 5.7 103.715 6.064 104.755 6.792C105.812 7.52 106.54 8.44733 106.939 9.574V5.882H108.109V26.656H106.939V16.308C106.54 17.4347 105.812 18.3707 104.755 19.116C103.697 19.844 102.423 20.208 100.933 20.208C99.6328 20.208 98.4628 19.9133 97.4228 19.324C96.4001 18.7173 95.5941 17.868 95.0048 16.776C94.4328 15.6667 94.1468 14.384 94.1468 12.928ZM106.939 12.928C106.939 11.6973 106.679 10.614 106.159 9.678C105.656 8.72467 104.963 7.99667 104.079 7.494C103.195 6.974 102.207 6.714 101.115 6.714C99.9708 6.714 98.9655 6.96533 98.0988 7.468C97.2321 7.95333 96.5561 8.664 96.0708 9.6C95.5855 10.536 95.3428 11.6453 95.3428 12.928C95.3428 14.2107 95.5855 15.32 96.0708 16.256C96.5561 17.192 97.2321 17.9113 98.0988 18.414C98.9828 18.9167 99.9881 19.168 101.115 19.168C102.207 19.168 103.195 18.9167 104.079 18.414C104.98 17.894 105.682 17.166 106.185 16.23C106.687 15.2767 106.939 14.176 106.939 12.928ZM123.783 5.882V20H122.613V16.932C122.214 18.0067 121.547 18.83 120.611 19.402C119.692 19.9567 118.635 20.234 117.439 20.234C115.758 20.234 114.38 19.7227 113.305 18.7C112.248 17.66 111.719 16.126 111.719 14.098V5.882H112.863V14.02C112.863 15.7013 113.288 16.9927 114.137 17.894C114.986 18.778 116.139 19.22 117.595 19.22C119.12 19.22 120.334 18.7347 121.235 17.764C122.154 16.7933 122.613 15.3547 122.613 13.448V5.882H123.783ZM126.8 12.928C126.8 11.472 127.086 10.198 127.658 9.106C128.248 8.014 129.054 7.17333 130.076 6.584C131.116 5.99467 132.295 5.7 133.612 5.7C135.103 5.7 136.368 6.064 137.408 6.792C138.448 7.52 139.176 8.44733 139.592 9.574V5.882H140.762V20H139.592V16.282C139.176 17.426 138.44 18.3707 137.382 19.116C136.342 19.844 135.086 20.208 133.612 20.208C132.295 20.208 131.116 19.9133 130.076 19.324C129.054 18.7173 128.248 17.868 127.658 16.776C127.086 15.6667 126.8 14.384 126.8 12.928ZM139.592 12.928C139.592 11.6973 139.332 10.614 138.812 9.678C138.31 8.72467 137.616 7.99667 136.732 7.494C135.848 6.974 134.86 6.714 133.768 6.714C132.624 6.714 131.619 6.96533 130.752 7.468C129.886 7.95333 129.21 8.664 128.724 9.6C128.239 10.536 127.996 11.6453 127.996 12.928C127.996 14.2107 128.239 15.32 128.724 16.256C129.21 17.192 129.886 17.9113 130.752 18.414C131.636 18.9167 132.642 19.168 133.768 19.168C134.86 19.168 135.848 18.9167 136.732 18.414C137.634 17.894 138.336 17.166 138.838 16.23C139.341 15.2767 139.592 14.176 139.592 12.928ZM143.774 12.928C143.774 11.472 144.06 10.198 144.632 9.106C145.222 8.014 146.028 7.17333 147.05 6.584C148.09 5.99467 149.269 5.7 150.586 5.7C152.025 5.7 153.273 6.064 154.33 6.792C155.388 7.50267 156.133 8.43 156.566 9.574V0.76H157.736V20H156.566V16.256C156.15 17.4173 155.422 18.3707 154.382 19.116C153.342 19.844 152.077 20.208 150.586 20.208C149.269 20.208 148.09 19.9133 147.05 19.324C146.028 18.7173 145.222 17.868 144.632 16.776C144.06 15.6667 143.774 14.384 143.774 12.928ZM156.566 12.928C156.566 11.6973 156.306 10.614 155.786 9.678C155.284 8.72467 154.59 7.99667 153.706 7.494C152.822 6.974 151.834 6.714 150.742 6.714C149.598 6.714 148.593 6.96533 147.726 7.468C146.86 7.95333 146.184 8.664 145.698 9.6C145.213 10.536 144.97 11.6453 144.97 12.928C144.97 14.2107 145.213 15.32 145.698 16.256C146.184 17.192 146.86 17.9113 147.726 18.414C148.61 18.9167 149.616 19.168 150.742 19.168C151.834 19.168 152.822 18.9167 153.706 18.414C154.608 17.894 155.31 17.166 155.812 16.23C156.315 15.2767 156.566 14.176 156.566 12.928Z" fill="#2488D0"/>
</svg>
